# xmcd
# 
# Track frame offsets:
#     150
#     26290
#     40398
#     60850
#     86813
#     107711
#     144598
#     162812
#     186148
#     211682
#     230182
# 
# Disc length: 4440
# 
# Revision: 0
# Processed by: cddbd v1.5.2PL0 Copyright (c) Steve Scherf et al.
# Submitted via: fre:ac v1.0.31
# 
DISCID=8c11560b
DTITLE=Drifft - Jabbing Thermal Desutude
DYEAR=0
DGENRE=Rock/Pop
TTITLE0=You Stole My Eighties Ride
TTITLE1=Velcro Anonymous
TTITLE2=No Remarks
TTITLE3=Immured (Honey On The Blade)
TTITLE4=Hug Me
TTITLE5=Moustache
TTITLE6=Washington's Havoc (Disheveled)
TTITLE7=Canary Yellow House
TTITLE8=Gray Clears
TTITLE9=Collisions And Illusions
TTITLE10=Fifteen
EXTD=
EXTT0=
EXTT1=
EXTT2=
EXTT3=
EXTT4=
EXTT5=
EXTT6=
EXTT7=
EXTT8=
EXTT9=
EXTT10=
PLAYORDER=
